<svg width="114" height="28" viewBox="0 0 114 28" fill="none" xmlns="http://www.w3.org/2000/svg">
<path d="M99.4219 27.06C98.6719 27.06 97.8619 27 96.8419 26.82L97.2019 23.04C97.7719 23.16 98.1619 23.22 98.7619 23.22C100.352 23.22 101.612 22.71 102.302 21L102.422 20.7L96.0619 6H101.102L104.882 15.84L108.182 6H113.102L107.012 20.73C105.092 25.38 102.242 27.06 99.4219 27.06Z" fill="black"/>
<path d="M95.1753 21.12C91.9953 21.12 89.5053 19.32 89.5053 14.94V0H93.9453V14.64C93.9453 16.11 94.3053 17.22 96.2253 17.22C96.6153 17.22 97.0953 17.19 97.5453 17.07V20.85C97.0353 20.97 96.3453 21.12 95.1753 21.12Z" fill="black"/>
<path d="M80.0677 21.3C78.1177 21.3 76.3177 20.55 75.5677 19.44V21H71.4277V0H75.8677V7.56C76.4977 6.45 78.1777 5.7 80.0677 5.7C84.2077 5.7 87.4777 9.12 87.4777 13.5C87.4777 17.88 84.2077 21.3 80.0677 21.3ZM79.2877 17.64C81.4477 17.64 83.0077 15.9 83.0077 13.5C83.0077 11.1 81.4477 9.36 79.2877 9.36C77.1277 9.36 75.5677 11.1 75.5677 13.5C75.5677 15.9 77.1277 17.64 79.2877 17.64Z" fill="black"/>
<path d="M60.2609 21.3C57.2009 21.3 55.2509 19.65 55.2509 17.16C55.2509 14.31 57.9209 12.3 62.9009 12.21L64.5209 12.18V11.76C64.5209 10.11 63.5309 9.12 61.9109 9.12C60.3509 9.12 59.3009 10.11 59.1809 11.73L54.8009 11.55C54.9809 7.86 57.7709 5.52 61.9709 5.52C65.8709 5.52 68.9609 7.86 68.9609 12.24V16.32C68.9609 17.97 69.0809 19.83 69.2609 21H65.0609C64.9409 20.46 64.9109 19.56 64.9109 18.84H64.8509C64.4009 20.31 62.3609 21.3 60.2609 21.3ZM61.5509 18.45C63.2609 18.45 64.5809 17.4 64.5809 15.21V14.73L63.1409 14.79C60.7109 14.88 59.7209 15.78 59.7209 16.98C59.7209 17.88 60.4109 18.45 61.5509 18.45Z" fill="black"/>
<path d="M51.3471 21.12C48.1671 21.12 45.6771 19.32 45.6771 14.94V0H50.1171V14.64C50.1171 16.11 50.4771 17.22 52.3971 17.22C52.7871 17.22 53.2671 17.19 53.7171 17.07V20.85C53.2071 20.97 52.5172 21.12 51.3471 21.12Z" fill="black"/>
<path d="M42.0893 21.12C38.9093 21.12 36.4193 19.32 36.4193 14.94V0H40.8593V14.64C40.8593 16.11 41.2193 17.22 43.1393 17.22C43.5293 17.22 44.0093 17.19 44.4593 17.07V20.85C43.9493 20.97 43.2593 21.12 42.0893 21.12Z" fill="black"/>
<path d="M26.1968 21.48C21.6068 21.48 18.0068 17.97 18.0068 13.5C18.0068 9.03 21.6068 5.52 26.1968 5.52C30.7868 5.52 34.3868 9.03 34.3868 13.5C34.3868 17.97 30.7868 21.48 26.1968 21.48ZM26.1968 17.64C28.3568 17.64 29.9168 15.9 29.9168 13.5C29.9168 11.1 28.3568 9.36 26.1968 9.36C24.0368 9.36 22.4768 11.1 22.4768 13.5C22.4768 15.9 24.0368 17.64 26.1968 17.64Z" fill="black"/>
<path d="M8.90746 21.48C4.28746 21.48 0.897461 18.12 0.897461 13.5C0.897461 8.88 4.28746 5.52 8.90746 5.52C13.4375 5.52 16.4975 8.19 16.6175 12.18L12.3575 12.66C12.1775 10.56 10.9175 9.36 8.90746 9.36C6.80746 9.36 5.36746 11.01 5.36746 13.5C5.36746 15.99 6.80746 17.64 8.90746 17.64C10.7675 17.64 11.9675 16.62 12.2075 14.82L16.4075 15.6C16.0475 19.26 13.1675 21.48 8.90746 21.48Z" fill="black"/>
</svg>
