<svg width="70" height="71" viewBox="0 0 70 71" fill="none" xmlns="http://www.w3.org/2000/svg">
<path d="M0 32.0601C0 20.859 0 15.2585 2.17987 10.9802C4.09734 7.21701 7.15695 4.1574 10.9202 2.23993C15.1984 0.0600586 20.799 0.0600586 32 0.0600586H38C49.201 0.0600586 54.8016 0.0600586 59.0798 2.23993C62.8431 4.1574 65.9027 7.21701 67.8201 10.9802C70 15.2585 70 20.859 70 32.0601V38.0601C70 49.2611 70 54.8616 67.8201 59.1399C65.9027 62.9031 62.8431 65.9627 59.0798 67.8802C54.8016 70.0601 49.201 70.0601 38 70.0601H32C20.7989 70.0601 15.1984 70.0601 10.9202 67.8802C7.15695 65.9627 4.09734 62.9031 2.17987 59.1399C0 54.8616 0 49.2611 0 38.0601V32.0601Z" fill="url(#paint0_linear_8021_449)"/>
<path d="M32 0.560059H38C43.6088 0.560059 47.7857 0.560132 51.0957 0.830566C54.193 1.08365 56.4928 1.57124 58.4629 2.49463L58.8525 2.68506C62.4072 4.49624 65.3182 7.35297 67.1963 10.8657L67.375 11.2075C68.4229 13.2642 68.9595 15.6607 69.2295 18.9644C69.4999 22.2743 69.5 26.4513 69.5 32.0601V38.0601C69.5 43.6688 69.4999 47.8458 69.2295 51.1558C68.9764 54.2531 68.4888 56.5529 67.5654 58.5229L67.375 58.9126C65.5638 62.4672 62.7071 65.3782 59.1943 67.2563L58.8525 67.4351C56.7958 68.4829 54.3994 69.0196 51.0957 69.2896C47.7857 69.56 43.6088 69.5601 38 69.5601H32C26.3912 69.5601 22.2143 69.56 18.9043 69.2896C15.807 69.0365 13.5072 68.5489 11.5371 67.6255L11.1475 67.4351C7.59282 65.6239 4.68183 62.7671 2.80371 59.2544L2.625 58.9126C1.57714 56.8559 1.04046 54.4595 0.770508 51.1558C0.500074 47.8458 0.5 43.6688 0.5 38.0601V32.0601L0.503906 28.1128C0.516694 24.417 0.567689 21.4467 0.770508 18.9644C1.02359 15.8671 1.51118 13.5672 2.43457 11.5972L2.625 11.2075C4.43618 7.65288 7.29292 4.74189 10.8057 2.86377L11.1475 2.68506C13.2042 1.63719 15.6006 1.10052 18.9043 0.830566C22.2143 0.560132 26.3912 0.560059 32 0.560059Z" stroke="black" stroke-opacity="0.3"/>
<path d="M35.2863 50.0601C26.4695 50.0601 20 43.7443 20 35.0601C20 26.3758 26.4695 20.0601 35.2863 20.0601C43.9313 20.0601 49.771 25.0789 50 32.5789L41.8702 33.4811C41.5267 29.5337 39.1221 27.2781 35.2863 27.2781C31.2786 27.2781 28.5305 30.3796 28.5305 35.0601C28.5305 39.7405 31.2786 42.842 35.2863 42.842C38.8359 42.842 41.126 40.9247 41.584 37.5413L49.5992 39.0074C48.9122 45.8871 43.416 50.0601 35.2863 50.0601Z" fill="black"/>
<defs>
<linearGradient id="paint0_linear_8021_449" x1="35" y1="0.0600586" x2="35" y2="70.0601" gradientUnits="userSpaceOnUse">
<stop stop-color="white"/>
<stop offset="1" stop-color="#B2FF00"/>
</linearGradient>
</defs>
</svg>
